# xmcd
#
# Track frame offsets: 
#        150
#        14786
#        27149
#        38945
#        51527
#        64727
#        75970
#        88019
#        101259
#        112921
#        127397
#        145650
#        163577
#        175480
#        189165
#        205137
#        219180
#        232918
#
# Disc length: 3259 seconds
#
# Revision: 0
# Processed by: cddbd v1.5.2PL0 Copyright (c) Steve Scherf et al.
# Submitted via: ExactAudioCopy v0.95b4
#
DISCID=ef0cb912
DTITLE=Various Artist - Country Number 1s - Reflections 2CD [CD1) 
DYEAR=2007
DGENRE=Country
TTITLE0=Eddie Rabbitt - I Love A Rainy Night
TTITLE1=Merle Haggard - Okie From Muskogee
TTITLE2=Donna Fargo - The Happiest Girl In The Whole U.S.A.
TTITLE3=Johnny Cash - I Walk The Line
TTITLE4=Faron Young - It's Four In The Morning
TTITLE5=Marty Robbins - Singing The Blues
TTITLE6=Jack Greene - There Goes My Everything
TTITLE7=Hank Williams - Hey, Good Lookin'
TTITLE8=Ray Price - Crazy Arms
TTITLE9=Lynn Anderson - Rose Garden
TTITLE10=T. Graham Brown - Don't Go To Strangers
TTITLE11=Johnny Lee - Lookin' For Love
TTITLE12=Don Gibson - Oh Lonesome Me
TTITLE13=Glen Campbell - Rhinestone Cowboy
TTITLE14=Janie Frickie - Always Have, Always Will
TTITLE15=Larry Gatlin and The Gatlin Bros. - Houston (Means I'm One Day 
TTITLE15=Closer To You)
TTITLE16=Mel McDaniel - Baby's Got Her Blue Jeans On
TTITLE17=George Jones - She Thinks I Still Care
EXTD=
EXTT0=
EXTT1=
EXTT2=
EXTT3=
EXTT4=
EXTT5=
EXTT6=
EXTT7=
EXTT8=
EXTT9=
EXTT10=
EXTT11=
EXTT12=
EXTT13=
EXTT14=
EXTT15=
EXTT16=
EXTT17=
PLAYORDER=
